<svg width="204" height="209" viewBox="0 0 204 209" fill="none" xmlns="http://www.w3.org/2000/svg">
<g filter="url(#filter0_d_0_1134)">
<ellipse cx="102" cy="101.5" rx="99" ry="101.5" fill="#5F37A8"/>
</g>
<ellipse cx="102" cy="97" rx="99" ry="97" fill="#834EE3"/>
<ellipse cx="102" cy="97" rx="99" ry="97" fill="url(#paint0_linear_0_1134)"/>
<circle cx="102" cy="99" r="76" fill="#BABFD4"/>
<ellipse cx="102" cy="103" rx="76" ry="72" fill="url(#paint1_linear_0_1134)"/>
<path d="M126.557 64.5981C130.966 61.8554 135.192 61.2614 138.457 62.9263C145.773 66.6576 144.714 80.5454 141.719 86.563C140.029 89.9594 137.033 92.4413 132.806 93.9507C131.169 99.1614 128.867 103.639 125.93 107.342C127.855 108.96 130.304 109.864 132.868 109.864H132.99L137.116 105.773C138.154 104.743 139.837 104.743 140.876 105.773C141.914 106.803 141.914 108.472 140.876 109.501L140.51 109.864H141.34C142.809 109.864 144 111.044 144 112.5C143.999 113.956 142.809 115.137 141.341 115.137H140.511L140.877 115.499C141.915 116.528 141.915 118.198 140.877 119.228C140.357 119.743 139.676 120 138.996 120C138.315 120 137.635 119.743 137.116 119.228L132.99 115.137H132.868C128.956 115.137 125.224 113.729 122.321 111.216C121.753 111.734 121.169 112.231 120.566 112.705C115.47 116.708 109.239 119.036 101.957 119.673C102.874 122.45 103.054 125.455 102.426 128.387L102.4 128.51L105.575 133.532C106.374 134.796 106.013 136.478 104.77 137.291C104.322 137.583 103.821 137.723 103.326 137.723C102.445 137.723 101.583 137.281 101.072 136.472L100.791 136.028L100.613 136.858C100.34 138.131 99.2321 139 98.0006 139C97.8121 139 97.621 138.98 97.4293 138.938C95.9851 138.619 95.0683 137.169 95.3824 135.701L95.5602 134.872L95.1237 135.157C93.8801 135.969 92.2245 135.603 91.4254 134.338C90.6262 133.075 90.9867 131.392 92.2301 130.58L97.1705 127.353L97.1959 127.23C97.7376 124.699 97.377 122.089 96.2184 119.83C94.1113 119.77 91.9291 119.59 89.6735 119.283C83.2764 118.412 79.6488 121.248 78.6891 122.137C71.1545 129.122 69.6953 141.466 69.6813 141.59C69.5547 142.719 68.7451 143.649 67.652 143.921C67.4376 143.975 67.2209 144 67.0065 144C66.1289 144 65.2885 143.566 64.7799 142.811C64.6568 142.628 61.824 138.372 60.5807 132.367C58.8915 124.206 60.9052 116.72 66.4049 110.718C69.5944 107.237 73.6677 104.591 78.1832 103.068C78.239 103.049 78.2953 103.032 78.3512 103.013C78.1612 103.062 77.9709 103.11 77.7819 103.162C76.3587 102.496 74.7892 102.137 73.1735 102.137H73.0504L68.9098 106.228C68.3886 106.743 67.705 107 67.0221 107C66.3393 107 65.6564 106.743 65.1354 106.228C64.0936 105.198 64.0936 103.529 65.1354 102.5L65.5016 102.137H64.6686C63.1948 102.137 61.9996 100.957 61.9996 99.5005C61.9997 98.0444 63.1949 96.8638 64.6686 96.8638H65.5016L65.1354 96.5015C64.0936 95.4717 64.0935 93.8024 65.1354 92.7729C66.1776 91.7434 67.8678 91.7434 68.9098 92.7729L73.0504 96.8638H73.1735C77.5393 96.8639 81.6839 98.6041 84.7076 101.67C87.1181 101.428 89.5769 101.467 92.0123 101.798C98.7647 102.717 104.287 101.771 108.55 98.9829C106.177 96.0431 104.853 92.3182 104.853 88.4214V88.2954L100.771 84.063C99.7437 82.9977 99.7436 81.2707 100.771 80.2056C101.799 79.1407 103.465 79.1405 104.492 80.2056L104.853 80.5806V79.728C104.853 78.2217 106.031 77.0005 107.484 77.0005C108.937 77.0006 110.115 78.2218 110.115 79.728V80.5806L110.476 80.2056C111.504 79.1406 113.17 79.1405 114.197 80.2056C115.762 81.8287 114.633 83.6116 114.197 84.064C113.76 84.5172 110.119 88.2907 110.115 88.2954V88.4214C110.115 90.997 110.983 93.4578 112.536 95.4126C114.462 93.0984 115.977 90.1896 117.074 86.689C116.271 84.4607 115.025 79.1832 118.205 73.1978C119.87 70.0631 123.071 66.7675 126.557 64.5981Z" fill="#3B4262"/>
<defs>
<filter id="filter0_d_0_1134" x="0" y="0" width="204" height="209" filterUnits="userSpaceOnUse" color-interpolation-filters="sRGB">
<feFlood flood-opacity="0" result="BackgroundImageFix"/>
<feColorMatrix in="SourceAlpha" type="matrix" values="0 0 0 0 0 0 0 0 0 0 0 0 0 0 0 0 0 0 127 0" result="hardAlpha"/>
<feOffset dy="3"/>
<feGaussianBlur stdDeviation="1.5"/>
<feColorMatrix type="matrix" values="0 0 0 0 0 0 0 0 0 0 0 0 0 0 0 0 0 0 0.196706 0"/>
<feBlend mode="normal" in2="BackgroundImageFix" result="effect1_dropShadow_0_1134"/>
<feBlend mode="normal" in="SourceGraphic" in2="effect1_dropShadow_0_1134" result="shape"/>
</filter>
<linearGradient id="paint0_linear_0_1134" x1="3" y1="0" x2="3" y2="194" gradientUnits="userSpaceOnUse">
<stop stop-color="white" stop-opacity="0.0966455"/>
<stop offset="1" stop-color="white" stop-opacity="0.01"/>
</linearGradient>
<linearGradient id="paint1_linear_0_1134" x1="176.74" y1="175" x2="176.74" y2="33.3868" gradientUnits="userSpaceOnUse">
<stop stop-color="#F3F3F3"/>
<stop offset="1" stop-color="#DADADA"/>
</linearGradient>
</defs>
</svg>
