<svg width="206" height="211" viewBox="0 0 206 211" fill="none" xmlns="http://www.w3.org/2000/svg">
<g filter="url(#filter0_d_0_1103)">
<ellipse cx="103" cy="101.5" rx="99" ry="101.5" fill="#2D8DAB"/>
<ellipse cx="103" cy="97" rx="99" ry="97" fill="#3FB7CD"/>
<ellipse cx="103" cy="97" rx="99" ry="97" fill="url(#paint0_linear_0_1103)"/>
<circle cx="103" cy="99" r="76" fill="#BABFD4"/>
<ellipse cx="103" cy="103" rx="76" ry="72" fill="url(#paint1_linear_0_1103)"/>
<path d="M136.512 104.822L135.333 103.644C132.518 100.826 127.915 100.213 124.477 102.188L117.136 106.384L118.666 72.7777C118.666 69.9603 116.374 67.667 113.555 67.667C112.946 67.667 112.36 67.7745 111.817 67.9714L111.999 66.168C111.999 63.3181 109.672 61.0005 106.814 61.0005C104.17 61.0005 101.953 62.983 101.673 65.5252L96.963 93.9854C96.9011 94.3728 96.2305 94.3337 96.1589 94.0896L90.5955 71.2723C89.9868 69.15 88.0205 67.6672 85.8135 67.6672C84.2868 67.6672 82.8674 68.3541 81.9169 69.552C80.9696 70.75 80.6246 72.2912 80.9762 73.7773L82.0569 78.372C81.4416 78.3215 80.8232 78.4045 80.234 78.6031C78.0399 79.3339 76.7019 81.5247 77.0568 83.839L80.3316 102.667C80.3316 110.096 81.6338 115.592 82.7276 118.893C83.3493 120.776 83.6651 122.757 83.6651 124.78C83.6651 126.541 83.4208 128.294 82.9358 129.986L80.3966 138.876C80.2533 139.379 80.3543 139.92 80.6668 140.338C80.9826 140.755 81.4741 141 81.9982 141H111.999C112.536 141 113.038 140.743 113.35 140.309C113.666 139.874 113.751 139.314 113.581 138.806C113.565 138.763 112.172 134.459 113.49 128.605C115.163 127.247 121.02 122.485 123.123 120.564C126.599 117.389 136.124 107.578 136.528 107.161C137.163 106.508 137.156 105.466 136.512 104.822Z" fill="#3B4262"/>
</g>
<defs>
<filter id="filter0_d_0_1103" x="0" y="0" width="206" height="211" filterUnits="userSpaceOnUse" color-interpolation-filters="sRGB">
<feFlood flood-opacity="0" result="BackgroundImageFix"/>
<feColorMatrix in="SourceAlpha" type="matrix" values="0 0 0 0 0 0 0 0 0 0 0 0 0 0 0 0 0 0 127 0" result="hardAlpha"/>
<feOffset dy="4"/>
<feGaussianBlur stdDeviation="2"/>
<feComposite in2="hardAlpha" operator="out"/>
<feColorMatrix type="matrix" values="0 0 0 0 0 0 0 0 0 0 0 0 0 0 0 0 0 0 0.25 0"/>
<feBlend mode="normal" in2="BackgroundImageFix" result="effect1_dropShadow_0_1103"/>
<feBlend mode="normal" in="SourceGraphic" in2="effect1_dropShadow_0_1103" result="shape"/>
</filter>
<linearGradient id="paint0_linear_0_1103" x1="4" y1="0" x2="4" y2="194" gradientUnits="userSpaceOnUse">
<stop stop-color="white" stop-opacity="0.0966455"/>
<stop offset="1" stop-color="white" stop-opacity="0.01"/>
</linearGradient>
<linearGradient id="paint1_linear_0_1103" x1="177.74" y1="175" x2="177.74" y2="33.3868" gradientUnits="userSpaceOnUse">
<stop stop-color="#F3F3F3"/>
<stop offset="1" stop-color="#DADADA"/>
</linearGradient>
</defs>
</svg>
